<?xml version="1.0" encoding="utf-8"?>
<!-- Generator: Adobe Illustrator 23.0.0, SVG Export Plug-In . SVG Version: 6.00 Build 0)  -->
<svg version="1.1" id="Camada_1" xmlns="http://www.w3.org/2000/svg" xmlns:xlink="http://www.w3.org/1999/xlink" x="0px" y="0px"
	 viewBox="0 0 971 1000" style="enable-background:new 0 0 971 1000;" xml:space="preserve">
<style type="text/css">
	.st0{fill:#4D9737;}
	.st1{fill:#FFA300;}
	.st2{fill:none;stroke:#FFA300;stroke-width:1.5;stroke-miterlimit:10;}
</style>
<title>Mapa-Portugal</title>
<g>
	<g>
		
			<image style="overflow:visible;opacity:0.9;enable-background:new    ;" width="504" height="1000" xlink:href="B68DCA9D.png"  transform="matrix(1 0 0 1 467 0)">
		</image>
		<polygon class="st0" points="562.3,64.5 593.8,36.6 593.8,31.3 615.3,22.3 637.8,22.3 660.2,8.8 660.2,25 674.6,25 674.6,34 
			654.8,56.4 663.8,64.5 664.7,71.7 680.9,75.3 693.5,63.6 702.4,60.9 702.4,51.9 706,65.4 733,55.5 748.3,61.8 745.6,67.2 
			754.5,70.8 760.8,64.5 770.7,68.1 770.7,75.3 776.1,68.1 803,62.7 805.7,42 823.7,50.1 837.2,39.3 840.8,51.9 853.3,49.2 
			858.7,36.6 870.4,49.2 884.8,52.8 893.8,42 893.8,60 904.5,62.7 899.2,69.9 894.7,86.1 901,102.2 910.8,99.5 932.4,102.2 
			948.6,117.5 927.9,148.9 930.6,156.1 920.7,156.1 912.6,173.2 892,184.9 884.8,181.3 865,203.7 864.1,216.3 840.8,226.2 
			859.6,256.7 855.1,280.1 859.6,291.7 853.3,314.2 860.5,314.2 860.5,326.8 853.3,334.9 862.3,352.8 850.7,369 839.9,369 
			830.9,378 830.9,399.5 839.9,399.5 848.9,414.8 848,444.4 830.9,456.1 829.1,485.8 789.6,485.8 782.4,492 755.4,482.2 759,497.4 
			776.1,506.4 776.1,517.2 787.8,517.2 787.8,543.3 800.3,554.9 794.1,570.2 811.1,570.2 812,585.5 828.2,585.5 839.9,598.9 
			824.6,624.1 826.4,628.6 794.1,658.2 794.1,675.3 796.8,675.3 786,701.3 783.3,711.2 792.3,714.8 819.2,761.5 843.5,755.2 
			833.6,786.7 825.5,789.4 816.5,782.2 809.3,792.1 795,792.1 787.8,822.6 770.7,834.3 758.1,880.1 765.3,883.7 776.1,944.8 
			761.7,944.8 703.3,978 662,960 631.5,958.2 608.1,954.7 550.6,969 556.9,943.9 557.8,938.5 569.5,915.1 574.9,891.8 573.1,878.3 
			567.7,872 566.8,860.3 573.1,858.5 572.2,810.9 559.6,796.5 572.2,779.5 574,757 578.5,750.8 576.7,733.7 573.1,730.1 
			571.3,715.7 584.8,711.2 583,693.3 574,704 560.5,696.8 540.8,711.2 514.7,715.7 514.7,706.7 514.7,686.1 510.2,670.8 
			531.8,668.1 546.2,656.4 552.4,649.2 552.4,632.2 550.6,627.7 551.5,614.2 543.5,623.2 536.3,638.5 529.1,651 517.4,665.4 
			503,667.2 485.1,669 475.2,655.5 475.2,640.3 482.4,622.3 486,605.2 486.9,588.2 494,571.1 493.1,544.2 488.7,536.1 503,529.8 
			527.3,509.1 533.6,484 542.6,456.1 548.8,426.5 559.6,404.9 560.5,378.9 570.4,345.6 578.5,315.1 591.1,296.2 598.3,283.7 
			592,276.5 587.5,271.1 592,245.9 595.5,224.4 588.4,202.8 579.4,175.9 579.4,161.5 572.2,153.4 575.8,139.9 570.4,119.3 
			564.1,92.3 		"/>
	</g>
	<path class="st1" d="M603.1,209.6c11.6,0,11.6-18,0-18S591.5,209.6,603.1,209.6z"/>
	<path class="st1" d="M629,391.7c11.6,0,11.6-18,0-18S617.4,391.7,629,391.7z"/>
	<path class="st1" d="M511.7,660.4c11.6,0,11.6-18,0-18S500.1,660.4,511.7,660.4z"/>
	<path class="st1" d="M611.9,306.6c11.6,0,11.6-18,0-18S600.3,306.6,611.9,306.6z"/>
	<path class="st1" d="M531,691.6c11.6,0,11.6-18,0-18S519.4,691.6,531,691.6z"/>
	<line class="st2" x1="603.3" y1="200.6" x2="434.2" y2="127.3"/>
	<line class="st2" x1="611.8" y1="298.2" x2="434.2" y2="294.8"/>
	<line class="st2" x1="628.9" y1="382.4" x2="434.2" y2="462.3"/>
	<line class="st2" x1="511.8" y1="650.8" x2="434.2" y2="629.7"/>
	<line class="st2" x1="531.3" y1="682.5" x2="434.2" y2="797.2"/>
	<line class="st2" x1="384.6" y1="127.3" x2="434.2" y2="127.3"/>
	<line class="st2" x1="384.6" y1="294.8" x2="434.2" y2="294.8"/>
	<line class="st2" x1="384.6" y1="462.3" x2="434.2" y2="462.3"/>
	<line class="st2" x1="384.6" y1="629.7" x2="434.2" y2="629.7"/>
	<line class="st2" x1="384.6" y1="797.2" x2="434.2" y2="797.2"/>
</g>
</svg>
