<svg xmlns="http://www.w3.org/2000/svg" viewBox="0 0 388 239.64"><defs><style>.cls-1{fill:#00709e;}.cls-2{font-size:21.92px;fill:#f4f4f4;font-family:MyriadPro-Regular, Myriad Pro;}.cls-3{letter-spacing:-0.03em;}.cls-4{letter-spacing:0em;}.cls-5{fill:#4d9737;}.cls-6{letter-spacing:0em;}.cls-7{letter-spacing:0em;}.cls-8{letter-spacing:-0.01em;}.cls-9{fill:#ffa300;}.cls-10{letter-spacing:-0.01em;}.cls-11{letter-spacing:0em;}</style></defs><title>Pirâmide EBEC</title><g id="Camada_2" data-name="Camada 2"><g id="Layer_1" data-name="Layer 1"><polygon class="cls-1" points="303.38 70.43 84.61 70.43 119.77 0 268.25 0 303.38 70.43"/><text class="cls-2" transform="translate(147.02 41.65)">EBEC <tspan class="cls-3" x="50.81" y="0">F</tspan><tspan class="cls-4" x="60.92" y="0">inal</tspan></text><polygon class="cls-5" points="345.73 155.28 42.27 155.28 77.7 84.28 310.31 84.28 345.73 155.28"/><text class="cls-2" transform="translate(88.19 113.06)">10 N<tspan class="cls-6" x="41.56" y="0">a</tspan><tspan x="52.04" y="0">tional &amp; </tspan><tspan class="cls-7" x="126.92" y="0">R</tspan><tspan x="138.8" y="0">e</tspan><tspan class="cls-8" x="149.79" y="0">g</tspan><tspan class="cls-4" x="161.91" y="0">ional </tspan><tspan x="45.8" y="26.31">EBEC </tspan><tspan class="cls-7" x="96.62" y="26.31">R</tspan><tspan x="108.5" y="26.31">ounds</tspan></text><polygon class="cls-9" points="388 239.63 0 239.63 35.59 168.34 352.43 168.34 388 239.63"/><text class="cls-2" transform="translate(94.28 210.42)">58 <tspan class="cls-10" x="27.14" y="0">L</tspan><tspan class="cls-4" x="37.18" y="0">ocal EBEC </tspan><tspan class="cls-11" x="130.23" y="0">R</tspan><tspan class="cls-4" x="142.11" y="0">ounds</tspan></text></g></g></svg>